<svg width="842" height="190" viewBox="0 0 842 190" version="2.0" xmlns="http://www.w3.org/2000/svg" xmlns:xlink="http://www.w3.org/1999/xlink" xmlns:figma="http://www.figma.com/figma/ns">
<title>Group</title>
<desc>Created using Figma (9000)</desc>
<g id="Canvas" transform="translate(-2191 -2558)" figma:type="canvas">
<g id="Group" style="mix-blend-mode:normal;" figma:type="group">
<g id="Group" style="mix-blend-mode:normal;" figma:type="group">
<g id="Group" style="mix-blend-mode:normal;" figma:type="group">
<g id="Rectangle 2" style="mix-blend-mode:normal;" opacity="0.75" figma:type="vector">
<use xlink:href="#path0_fill" transform="matrix(-1 0 0 1 2371.74 2558.09)" fill="#EB5757" style="mix-blend-mode:normal;"/>
</g>
<g id="Ellipse 2" style="mix-blend-mode:normal;" opacity="0.75" figma:type="ellipse">
<use xlink:href="#path1_fill" transform="matrix(1 0 0 1 2260.3 2704.75)" fill="#FFD54F" style="mix-blend-mode:normal;"/>
</g>
<g id="Rectangle 2" style="mix-blend-mode:normal;" opacity="0.75" figma:type="rounded-rectangle">
<use xlink:href="#path2_fill" transform="matrix(0.905971 0.423339 -0.422363 0.906427 2271.29 2551)" fill="#56CCF2" style="mix-blend-mode:normal;"/>
</g>
</g>
</g>
<g id="airtime" style="mix-blend-mode:normal;" figma:type="vector">
<use xlink:href="#path3_fill" transform="translate(2399.52 2577)" fill="#545557" style="mix-blend-mode:normal;"/>
<use xlink:href="#path4_fill" transform="translate(2399.52 2577)" fill="#545557" style="mix-blend-mode:normal;"/>
<use xlink:href="#path5_fill" transform="translate(2399.52 2577)" fill="#545557" style="mix-blend-mode:normal;"/>
<use xlink:href="#path6_fill" transform="translate(2399.52 2577)" fill="#545557" style="mix-blend-mode:normal;"/>
<use xlink:href="#path7_fill" transform="translate(2399.52 2577)" fill="#545557" style="mix-blend-mode:normal;"/>
<use xlink:href="#path8_fill" transform="translate(2399.52 2577)" fill="#545557" style="mix-blend-mode:normal;"/>
<use xlink:href="#path9_fill" transform="translate(2399.52 2577)" fill="#545557" style="mix-blend-mode:normal;"/>
</g>
</g>
</g>
<defs>
<path id="path0_fill" d="
M 70.3583 12.4582
C 75.3902 1.65943 88.2111 -3.00985 98.9947 2.02906
C 109.778 7.06798 114.441 19.907 109.409 30.7057
L 41.0771 177.352
C 36.0452 188.151 23.2243 192.82 12.4407 187.782
C 1.65709 182.743 -3.00563 169.904 2.02621 159.105
L 70.3583 12.4582
Z"/>
<path id="path1_fill" d="
M 43.093 21.5768
C 43.093 33.4934 33.4463 43.1536 21.5465 43.1536
C 9.6467 43.1536 0 33.4934 0 21.5768
C 0 9.66027 9.6467 0 21.5465 0
C 33.4463 0 43.093 9.66027 43.093 21.5768
Z"/>
<path id="path2_fill" d="
M 0 21.5519
C 0 9.64912 9.64912 0 21.5519 0
L 21.5519 0
C 33.4547 0 43.1038 9.64912 43.1038 21.5519
L 43.1038 183.376
C 43.1038 195.279 33.4547 204.928 21.5519 204.928
L 21.5519 204.928
C 9.64912 204.928 0 195.279 0 183.376
L 0 21.5519
Z"/>
<path id="path3_fill" d="
M 60.6 108.1
C 54.4 108.367 49.3 108.9 45.3 109.7
C 41.3 110.5 38.1333 111.5 35.8 112.7
C 33.4667 113.9 31.8333 115.267 30.9 116.8
C 30.0333 118.333 29.6 120 29.6 121.8
C 29.6 125.333 30.5667 127.833 32.5 129.3
C 34.4333 130.7 37.2667 131.4 41 131.4
C 45 131.4 48.5 130.7 51.5 129.3
C 54.5 127.9 57.5333 125.633 60.6 122.5
L 60.6 108.1
Z
M 4.8 61
C 11.0667 55.4667 18 51.3667 25.6 48.7
C 33.2667 45.9667 41.4667 44.6 50.2 44.6
C 56.4667 44.6 62.1 45.6333 67.1 47.7
C 72.1667 49.7 76.4333 52.5333 79.9 56.2
C 83.4333 59.8 86.1333 64.1 88 69.1
C 89.8667 74.1 90.8 79.5667 90.8 85.5
L 90.8 150.3
L 76.6 150.3
C 73.6667 150.3 71.4333 149.9 69.9 149.1
C 68.4333 148.3 67.2 146.633 66.2 144.1
L 64 138.4
C 61.4 140.6 58.9 142.533 56.5 144.2
C 54.1 145.867 51.6 147.3 49 148.5
C 46.4667 149.633 43.7333 150.467 40.8 151
C 37.9333 151.6 34.7333 151.9 31.2 151.9
C 26.4667 151.9 22.1667 151.3 18.3 150.1
C 14.4333 148.833 11.1333 147 8.4 144.6
C 5.73333 142.2 3.66667 139.233 2.2 135.7
C 0.733333 132.1 0 127.967 0 123.3
C 0 119.567 0.933333 115.8 2.8 112
C 4.66667 108.133 7.9 104.633 12.5 101.5
C 17.1 98.3 23.3 95.6333 31.1 93.5
C 38.9 91.3667 48.7333 90.1667 60.6 89.9
L 60.6 85.5
C 60.6 79.4333 59.3333 75.0667 56.8 72.4
C 54.3333 69.6667 50.8 68.3 46.2 68.3
C 42.5333 68.3 39.5333 68.7 37.2 69.5
C 34.8667 70.3 32.7667 71.2 30.9 72.2
C 29.1 73.2 27.3333 74.1 25.6 74.9
C 23.8667 75.7 21.8 76.1 19.4 76.1
C 17.2667 76.1 15.4667 75.5667 14 74.5
C 12.5333 73.4333 11.3333 72.1667 10.4 70.7
L 4.8 61
Z"/>
<path id="path4_fill" d="
M 142.3 46.6
L 142.3 150.3
L 111.3 150.3
L 111.3 46.6
L 142.3 46.6
Z
M 145.5 18.2
C 145.5 20.6667 145 23 144 25.2
C 143 27.3333 141.633 29.2333 139.9 30.9
C 138.167 32.5 136.133 33.8 133.8 34.8
C 131.533 35.7333 129.1 36.2 126.5 36.2
C 123.967 36.2 121.6 35.7333 119.4 34.8
C 117.2 33.8 115.233 32.5 113.5 30.9
C 111.833 29.2333 110.5 27.3333 109.5 25.2
C 108.567 23 108.1 20.6667 108.1 18.2
C 108.1 15.6667 108.567 13.3 109.5 11.1
C 110.5 8.9 111.833 6.96667 113.5 5.3
C 115.233 3.63333 117.2 2.33333 119.4 1.4
C 121.6 0.466667 123.967 0 126.5 0
C 129.1 0 131.533 0.466667 133.8 1.4
C 136.133 2.33333 138.167 3.63333 139.9 5.3
C 141.633 6.96667 143 8.9 144 11.1
C 145 13.3 145.5 15.6667 145.5 18.2
Z"/>
<path id="path5_fill" d="
M 193 62.6
C 196.2 57 199.867 52.6 204 49.4
C 208.2 46.2 213 44.6 218.4 44.6
C 223.067 44.6 226.867 45.7 229.8 47.9
L 227.8 70.7
C 227.467 72.1667 226.9 73.1667 226.1 73.7
C 225.367 74.2333 224.333 74.5 223 74.5
C 222.467 74.5 221.767 74.4667 220.9 74.4
C 220.033 74.3333 219.133 74.2667 218.2 74.2
C 217.267 74.0667 216.3 73.9667 215.3 73.9
C 214.367 73.7667 213.5 73.7 212.7 73.7
C 208.167 73.7 204.533 74.9 201.8 77.3
C 199.133 79.7 196.867 83.0333 195 87.3
L 195 150.3
L 164 150.3
L 164 46.6
L 182.4 46.6
C 183.933 46.6 185.2 46.7333 186.2 47
C 187.267 47.2667 188.133 47.7 188.8 48.3
C 189.533 48.8333 190.067 49.5667 190.4 50.5
C 190.8 51.4333 191.133 52.5667 191.4 53.9
L 193 62.6
Z"/>
<path id="path6_fill" d="
M 277.4 151.9
C 272.467 151.9 268.1 151.2 264.3 149.8
C 260.567 148.333 257.4 146.3 254.8 143.7
C 252.267 141.033 250.333 137.833 249 134.1
C 247.667 130.367 247 126.2 247 121.6
L 247 68
L 238.2 68
C 236.6 68 235.233 67.5 234.1 66.5
C 232.967 65.4333 232.4 63.9 232.4 61.9
L 232.4 49.8
L 248.9 46.6
L 255 21.3
C 255.8 18.1 258.067 16.5 261.8 16.5
L 278 16.5
L 278 46.8
L 303.7 46.8
L 303.7 68
L 278 68
L 278 119.5
C 278 121.9 278.567 123.9 279.7 125.5
C 280.9 127.033 282.6 127.8 284.8 127.8
C 285.933 127.8 286.867 127.7 287.6 127.5
C 288.4 127.233 289.067 126.967 289.6 126.7
C 290.2 126.367 290.733 126.1 291.2 125.9
C 291.733 125.633 292.333 125.5 293 125.5
C 293.933 125.5 294.667 125.733 295.2 126.2
C 295.8 126.6 296.4 127.267 297 128.2
L 306.4 142.9
C 302.4 145.9 297.9 148.167 292.9 149.7
C 287.9 151.167 282.733 151.9 277.4 151.9
Z"/>
<path id="path7_fill" d="
M 348.8 46.6
L 348.8 150.3
L 317.8 150.3
L 317.8 46.6
L 348.8 46.6
Z
M 352 18.2
C 352 20.6667 351.5 23 350.5 25.2
C 349.5 27.3333 348.133 29.2333 346.4 30.9
C 344.667 32.5 342.633 33.8 340.3 34.8
C 338.033 35.7333 335.6 36.2 333 36.2
C 330.467 36.2 328.1 35.7333 325.9 34.8
C 323.7 33.8 321.733 32.5 320 30.9
C 318.333 29.2333 317 27.3333 316 25.2
C 315.067 23 314.6 20.6667 314.6 18.2
C 314.6 15.6667 315.067 13.3 316 11.1
C 317 8.9 318.333 6.96667 320 5.3
C 321.733 3.63333 323.7 2.33333 325.9 1.4
C 328.1 0.466667 330.467 0 333 0
C 335.6 0 338.033 0.466667 340.3 1.4
C 342.633 2.33333 344.667 3.63333 346.4 5.3
C 348.133 6.96667 349.5 8.9 350.5 11.1
C 351.5 13.3 352 15.6667 352 18.2
Z"/>
<path id="path8_fill" d="
M 370.5 150.3
L 370.5 46.6
L 389.7 46.6
C 393.567 46.6 396.1 48.3333 397.3 51.8
L 399 57.4
C 400.733 55.6 402.533 53.9667 404.4 52.5
C 406.267 50.9667 408.267 49.6667 410.4 48.6
C 412.6 47.4667 414.933 46.6 417.4 46
C 419.933 45.3333 422.7 45 425.7 45
C 431.967 45 437.133 46.6333 441.2 49.9
C 445.333 53.1 448.467 57.4 450.6 62.8
C 452.333 59.6 454.433 56.8667 456.9 54.6
C 459.433 52.3333 462.133 50.5 465 49.1
C 467.933 47.7 471 46.6667 474.2 46
C 477.467 45.3333 480.7 45 483.9 45
C 489.833 45 495.1 45.9 499.7 47.7
C 504.3 49.4333 508.133 52 511.2 55.4
C 514.333 58.7333 516.7 62.8667 518.3 67.8
C 519.9 72.6667 520.7 78.2 520.7 84.4
L 520.7 150.3
L 489.7 150.3
L 489.7 84.4
C 489.7 73.6667 485.1 68.3 475.9 68.3
C 471.7 68.3 468.2 69.7 465.4 72.5
C 462.667 75.2333 461.3 79.2 461.3 84.4
L 461.3 150.3
L 430.3 150.3
L 430.3 84.4
C 430.3 78.4667 429.133 74.3 426.8 71.9
C 424.467 69.5 421.033 68.3 416.5 68.3
C 413.7 68.3 411.033 68.9333 408.5 70.2
C 406.033 71.4667 403.7 73.1667 401.5 75.3
L 401.5 150.3
L 370.5 150.3
Z"/>
<path id="path9_fill" d="
M 605.2 86
C 605.2 83.5333 604.867 81.1333 604.2 78.8
C 603.6 76.4667 602.567 74.4 601.1 72.6
C 599.7 70.7333 597.833 69.2333 595.5 68.1
C 593.167 66.9667 590.333 66.4 587 66.4
C 581.133 66.4 576.533 68.1 573.2 71.5
C 569.867 74.8333 567.667 79.6667 566.6 86
L 605.2 86
Z
M 566.2 104
C 567.2 112.667 569.833 118.967 574.1 122.9
C 578.367 126.767 583.867 128.7 590.6 128.7
C 594.2 128.7 597.3 128.267 599.9 127.4
C 602.5 126.533 604.8 125.567 606.8 124.5
C 608.867 123.433 610.733 122.467 612.4 121.6
C 614.133 120.733 615.933 120.3 617.8 120.3
C 620.267 120.3 622.133 121.2 623.4 123
L 632.4 134.1
C 629.2 137.767 625.733 140.767 622 143.1
C 618.333 145.367 614.533 147.167 610.6 148.5
C 606.733 149.767 602.833 150.633 598.9 151.1
C 595.033 151.633 591.333 151.9 587.8 151.9
C 580.533 151.9 573.7 150.733 567.3 148.4
C 560.967 146 555.4 142.467 550.6 137.8
C 545.867 133.133 542.1 127.333 539.3 120.4
C 536.567 113.467 535.2 105.4 535.2 96.2
C 535.2 89.2667 536.367 82.7 538.7 76.5
C 541.1 70.3 544.5 64.8667 548.9 60.2
C 553.367 55.5333 558.733 51.8333 565 49.1
C 571.333 46.3667 578.467 45 586.4 45
C 593.267 45 599.533 46.0667 605.2 48.2
C 610.933 50.3333 615.833 53.4333 619.9 57.5
C 624.033 61.5667 627.233 66.5667 629.5 72.5
C 631.833 78.3667 633 85.0333 633 92.5
C 633 94.8333 632.9 96.7333 632.7 98.2
C 632.5 99.6667 632.133 100.833 631.6 101.7
C 631.067 102.567 630.333 103.167 629.4 103.5
C 628.533 103.833 627.4 104 626 104
L 566.2 104
Z"/>
</defs>
</svg>
