<?xml version="1.0" encoding="UTF-8" standalone="no"?>
<svg width="407px" height="684px" viewBox="0 0 407 684" version="1.1" xmlns="http://www.w3.org/2000/svg" xmlns:xlink="http://www.w3.org/1999/xlink">
    <!-- Generator: Sketch 3.7.2 (28276) - http://www.bohemiancoding.com/sketch -->
    <title>coverage</title>
    <desc>Created with Sketch.</desc>
    <defs></defs>
    <g id="Page-1" stroke="none" stroke-width="1" fill="none" fill-rule="evenodd">
        <g id="coverage">
            <g id="Page-1" transform="translate(42.000000, 181.000000)">
                <path d="M324,162 C324,251.4672 251.4672,324 162,324 C72.5328,324 0,251.4672 0,162 C0,84.2508 54.7776,19.2888 127.8396,3.6072 L132.4134,3.6828 L135.7074,2.1276 C138.3534,1.6956 141.021,1.3284 143.7102,1.026 L149.3802,1.1988 L153.3276,0.2268 C154.0944,0.189 154.8558,0.1512 155.628,0.1188 L162,1.0044 L166.2174,0.054 C167.022,0.0756 167.8266,0.1026 168.6258,0.135 L177.5142,2.3706 L188.001,2.079 C189.243,2.2788 190.485,2.4948 191.7162,2.7216 L230.148,27.2052 L272.0682,43.1406 C304.0092,72.7326 324,115.0362 324,161.9946" id="Fill-1" fill="#80D9F5"></path>
                <path d="M169.857,51.1326 C180.414,54.5022 179.9928,47.8386 186.6564,55.6092 C190.4742,60.0642 197.4024,68.2128 205.632,70.2216 C206.7714,70.5078 209.3472,68.0454 209.3472,66.0744 C209.3472,64.1142 203.6718,59.967 200.4048,59.0814 C197.127,58.1958 201.7116,52.1154 197.348454,50.2524 C192.985254,48.3894 188.184654,41.4234 186.4404,35.9694 C184.6908,30.5154 177.055254,35.0946 174.436254,34.0092 C171.8226,32.913 168.550254,33.5664 165.7152,37.7136 C162.8802,41.8608 167.1516,50.2686 169.857,51.1326" id="Fill-3" fill="#FFDF7B"></path>
                <path d="M227.016,203.7366 C226.9026,201.4524 206.1396,190.0962 203.6124,189.9396 C199.4598,189.6966 193.806,187.6122 190.0098,189.837 C188.3682,190.7712 187.0344,192.0186 186.0084,193.5846 C185.2956,194.9346 181.2456,192.4182 179.6796,193.2552 C175.9266,195.2532 173.8098,188.7678 174.879,186.2784 C177.4764,180.198 168.2424,184.0482 167.2866,182.3796 C168.4152,184.3398 166.9734,165.0618 163.7334,175.9482 C161.2818,184.1886 151.6914,174.7386 152.8254,168.7554 C154.6182,159.4944 168.561,158.1552 171.6336,159.7914 C173.1834,160.6122 178.8534,168.8418 179.577,168.6096 C181.1376,168.1182 178.659,158.9274 178.3512,157.7016 C177.2334,153.225 185.841,151.7184 186.4512,147.0312 C186.9696,143.0514 189.6642,144.4338 192.348,142.3062 C196.2468,139.2228 193.2012,133.4718 198.1908,130.5234 C199.8864,129.5136 206.2422,128.7792 207.0792,127.0026 C207.846,125.3772 201.717,120.9276 206.9874,119.6424 C211.7178,118.4922 216.5508,120.5388 217.8414,113.7132 C219.0078,107.5248 212.166,106.0884 210.087,101.2824 C209.4606,99.8298 208.6722,91.5246 205.7454,93.0636 C202.1274,94.9644 199.8756,99.5598 196.9218,94.1004 C191.5974,84.2724 178.3782,80.028 184.5666,95.4936 C187.758,103.4802 175.8186,127.7748 174.096,105.3108 C173.4966,97.5132 150.1524,95.1588 157.9932,86.5242 C165.9582,77.7546 176.8068,77.4522 179.7552,63.99 C183.8484,45.3168 170.9208,61.2036 164.3112,57.591 C154.4508,52.2072 162.8046,55.1124 157.707,62.1054 C155.7738,64.7622 149.4234,60.4206 146.6154,60.8472 C144.0018,61.236 137.2788,67.0302 135.4806,63.423 C132.1704,56.8242 109.0368,52.7418 102.7566,55.0962 C89.7102,59.994 85.1796,53.3736 72.1332,50.7924 C67.608,49.9014 45.3924,49.2642 46.8396,56.9538 C47.4066,59.9724 49.5342,62.3484 50.4738,65.2104 C51.8616,69.444 45.5004,66.1824 44.037,67.2138 C43.6482,67.4892 51.5322,73.0404 52.1748,73.6992 C54.3078,75.87 43.9938,78.5268 42.9786108,82.161 C40.9050108,89.5644 57.1104,87.4476 54.1512,96.3144 C53.244,99.0198 43.9614,103.4262 43.0758054,112.4982 C42.9084054,114.2424 54.5994,101.2554 62.1648,104.004 C68.8446,106.4286 68.2614,88.2954 76.5612,88.2954 C92.0106,88.2954 95.0022,103.356 103.1508,113.4486 C106.9524,118.152 110.0034,120.1122 110.6892,126.2628 C111.321,131.9868 110.0898,138.9528 112.1634,144.3906 C114.1506,149.5962 118.1844,149.958 120.852,154.1592 C124.011,159.1164 125.8038,163.9224 130.1022,168.21 C136.3446,174.4578 146.961,184.0374 156.7512,182.5686 C158.6898,182.277 165.9744,186.4296 167.6052,187.6662 C170.1594,189.5832 171.4554,192.5208 173.313,194.9994 C175.0356,197.3052 180.5058,195.8526 182.9088,196.9596 C185.0472,197.9478 177.3576,214.1478 180.2196,218.4138 C183.3678,223.101 183.3678,228.3552 188.0874,232.0596 C192.5532,235.5588 193.8978,235.8342 194.4486,241.9038 C195.3342,251.7804 192.4668,261.7488 190.08,270.9396 C188.8542,275.6646 191.322,280.880978 189.4914,285.389973 C187.191,291.027562 185.6358,295.865962 187.6446,302.113773 C191.133,312.967762 210.708,314.765962 199.0872,305.278162 C194.1462,301.238957 204.4224,291.497373 201.2256,290.552357 C195.723,288.257362 202.2408,286.178351 202.964346,283.786168 C204.4116,279.028746 226.254546,259.329546 227.869146,256.067946 C229.224546,253.335546 228.349746,250.5114 230.569146,248.1408 C233.036946,245.5164 236.428146,246.4452 239.203746,244.587546 C244.970946,240.726546 242.891946,234.1872 245.273346,228.851946 C249.998346,218.262546 251.996346,222.463746 245.5218,214.190946 C243.134946,211.166946 227.4426,212.279346 226.989,203.741946" id="Fill-4" fill="#FFDF7B"></path>
                <path d="M110.2464,43.632 C114.2208,47.7792 118.1574,41.4504 118.8108,43.632 C119.4642,45.8136 119.5722,49.9392 124.3188,50.274 C129.0654,50.6088 119.9016,53.6598 122.958,54.972 C126.0036,56.2788 132.5538,60.426 134.9514,58.6818 C137.3544,56.9376 140.1948,55.6308 141.2802,56.9376 C142.3764,58.2498 148.9158,56.7216 147.0582,54.54 C145.2114,52.3584 140.1948,47.1798 140.4054,44.2044 C140.6268,41.229 146.3022,33.5934 139.9734,34.2468 C135.8478,34.6788 134.9514,38.3994 134.9514,40.5756 C134.9514,42.7572 129.0654,37.3086 127.9692,37.4112 C126.8838,37.5246 122.7366,30.7638 121.2084,30.7638 C119.6802,30.7638 109.4256,27.4914 110.3004,30.7638 C111.1752,34.0362 106.272,39.4902 110.2464,43.632" id="Fill-5" fill="#FFDF7B"></path>
                <path d="M201.69,74.8116 C198.612,73.0512 192.7476,64.9944 190.1286,67.608 C187.5042,70.2216 190.782,76.1184 192.9528,78.7374 C195.1344,81.351 204.3036,87.0264 202.9914,84.4128 C201.6792,81.7992 207.792,78.3 201.69,74.8116" id="Fill-6" fill="#FFDF7B"></path>
                <path d="M116.2566,19.3212 C117.8604,19.1754 120.3282,24.6996 122.661,25.2828 C124.9938,25.866 126.1494,28.6308 127.0296,29.2842 C127.9098,29.9376 137.6514,26.163 139.968,25.2828 C142.668,24.2676 137.0574,19.0296 135.1674,15.255 C133.2774,11.4696 134.7354,21.5082 131.9706,19.8774 C129.2058,18.2466 129.6378,15.9786 126.2952,15.9786 C122.9526,15.9786 125.2746,9.1368 121.0518,10.5948 C116.829,12.0528 114.6636,19.467 116.2566,19.3212" id="Fill-7" fill="#FFDF7B"></path>
                <path d="M151.308,32.4 C148.4622,32.9832 148.9806,34.8732 147.3768,36.4716 C145.7838,38.0754 145.9296,40.2516 147.3768,42.147 C148.8348,44.037 151.1622,47.3688 152.901,44.172 C154.6506,40.9806 152.901,38.367 152.901,36.3258 C152.901,34.29 152.712,32.1084 151.308,32.4" id="Fill-8" fill="#FFDF7B"></path>
                <path d="M157.14,42.5898 C157.869,44.3394 159.1758,39.5442 162.0108,37.0656 C164.8458,34.5978 160.6284,28.3446 158.0148,31.5414 C156.2436,33.7014 156.411,40.8456 157.14,42.5898" id="Fill-9" fill="#FFDF7B"></path>
                <path d="M156.6,44.7714 C155.0826,46.9044 153.8892,52.6014 156.6,53.0604 C159.3108,53.5248 160.9578,50.4468 159.7644,48.2598 C158.571,46.0728 157.2318,43.8966 156.6,44.7714" id="Fill-10" fill="#FFDF7B"></path>
                <path d="M167.616,7.9758 C165.0024,9.1422 171.4014,11.3238 167.0382,12.4902 C162.6696,13.6512 162.5238,17.2908 158.7492,14.229 C154.9638,11.1834 150.849,15.2496 153.7056,17.1396 C156.5622,19.0296 161.3628,23.544 161.217,26.0118 C161.082,28.4904 165.7314,29.6568 170.1,29.3652 C174.4578,29.0682 179.6958,30.3804 179.836254,28.4904 C179.982054,26.595 180.500454,25.8174 179.982054,24.4134 C179.220654,22.3506 177.3684,20.3418 172.8648,22.086 C168.350454,23.8302 165.429054,22.9608 164.786454,20.7792 C164.133054,18.5976 173.593854,14.3748 177.800454,17.2908 C182.0178,20.2014 185.9544,15.687 182.892654,13.6512 C179.830854,11.6154 181.872054,9.4338 183.978054,9.1422 C185.506254,8.937 186.888654,5.0814 188.017254,2.079 C181.666854,1.0584 175.203054,0.3996 168.642054,0.1404 C168.669054,4.2498 170.213454,6.8256 167.616054,7.9758" id="Fill-11" fill="#FFDF7B"></path>
                <path d="M128.9142,4.3416 C131.8356,5.5782 136.593,4.32 135.6966,2.1276 C133.0614,2.5596 130.4424,3.051 127.8504,3.6072 C128.0934,3.8934 128.439,4.1418 128.9142,4.3416" id="Fill-12" fill="#FFDF7B"></path>
                <path d="M130.734,6.6636 C126.63,4.5576 126.8622,9.72 128.7522,11.7558 C130.6422,13.7916 136.0314,9.3906 130.734,6.6636" id="Fill-13" fill="#FFDF7B"></path>
                <path d="M155.628,0.1242 C158.6952,0.6858 160.6932,3.0726 161.1954,4.8276 C161.7462,6.6636 166.1526,2.673 166.2174,0.0486 C164.8134,0.0216 163.4148,0 162,0 C159.867,0 157.7502,0.0432 155.628,0.1242" id="Fill-14" fill="#FFDF7B"></path>
                <path d="M147.042,6.1722 C145.1952,8.7048 146.7882,11.7828 148.9698,9.2286 C151.1514,6.6636 149.4018,0.27 151.1514,3.0348 C152.8902,5.7996 156.0978,10.1898 158.2794,10.3896 C160.4502,10.5948 158.5656,7.83 158.2794,5.508 C158.0364,3.5694 152.8254,1.0044 153.3006,0.2322 C150.0714,0.3996 146.8692,0.6642 143.694,1.0206 C145.989,2.5056 148.3758,4.3578 147.042,6.1722" id="Fill-15" fill="#FFDF7B"></path>
                <path d="M156.6,28.0422 C159.1542,29.0628 156.6,22.8096 156.6,22.8096 C153.9216,24.4134 154.0458,27.0324 156.6,28.0422" id="Fill-16" fill="#FFDF7B"></path>
                <path d="M147.366,23.9706 C147.8088,25.7202 150.5736,26.3034 152.0262,23.9706 C153.4842,21.6432 151.9506,13.1706 149.9472,15.8274 C147.8682,18.5922 145.476,17.2854 141.2586,15.8274 C137.0412,14.3694 146.934,22.2318 147.366,23.9706" id="Fill-17" fill="#FFDF7B"></path>
                <path d="M175.8564,172.6542 C179.4528,172.2168 181.5318,176.58 185.6736,176.364 C189.8154,176.148 195.8202,182.2716 199.2978,178.659 C202.1328,175.7106 186.8616,173.313 181.8558,170.694 C176.8392,168.0696 172.2492,173.0862 175.8564,172.6542" id="Fill-18" fill="#FFDF7B"></path>
                <path d="M194.724,13.3488 C191.6622,15.6762 192.7638,20.7738 199.5246,20.412 C206.2854,20.0502 210.4326,13.3542 213.489,22.8096 C216.5346,32.2596 214.3638,42.6114 218.2896,45.5058 C222.2154,48.4056 218.943,50.3874 218.2896,53.1036 C217.6362,55.8198 219.375,57.78 222.4368,56.9106 C225.4986,56.0412 224.6184,61.7166 222.4368,64.1088 C220.2552,66.5118 217.6578,71.091 224.4078,79.38 C231.1578,87.669 232.0326,86.5836 234.2142,89.4132 C236.3958,92.2482 238.14,88.3656 238.7934,85.0716 C239.4468,81.7776 237.2652,70.2594 244.9008,70.2378 C252.5364,70.2108 254.718,64.1034 255.5928,62.1432 C256.4676,60.183 262.575,60.399 265.842,57.5586 C268.7418,55.0476 271.9818,52.9254 272.0736,43.1352 C250.0848,22.761 222.4206,8.4024 191.727,2.7108 C191.133,4.9896 191.16,7.5222 193.6386,8.6994 C198.6498,11.1024 197.7858,11.0214 194.724,13.3488 Z" id="Fill-19" fill="#FFDF7B"></path>
            </g>
        </g>
    </g>
</svg>