<?xml version="1.0" encoding="UTF-8" standalone="no"?>
<svg width="193px" height="193px" viewBox="0 0 193 193" version="1.1" xmlns="http://www.w3.org/2000/svg" xmlns:xlink="http://www.w3.org/1999/xlink">
    <!-- Generator: Sketch 3.7.2 (28276) - http://www.bohemiancoding.com/sketch -->
    <title>icon-devices</title>
    <desc>Created with Sketch.</desc>
    <defs></defs>
    <g id="Page-1" stroke="none" stroke-width="1" fill="none" fill-rule="evenodd">
        <g id="icon-devices">
            <g id="Page-1" transform="translate(46.000000, 8.000000)">
                <path d="M101,11.6128125 C101,5.805 95.01575,0 89.0258889,0 L11.9713056,0 C5.98705556,0 0,5.805 0.00280555556,11.6128125 L0,168.387182 C0,174.195003 5.98705556,180 11.9713056,180 L89.0286944,180 C95.01575,180 101,174.195003 101,168.387182 L101,11.6128125 L101,11.6128125 Z" id="Fill-1" fill="#5C6D6D"></path>
                <path d="M98.1944444,165.9375 C98.1944444,171.5625 92.5833333,177.1875 86.9722222,177.1875 L14.0277778,177.1875 C8.41666667,177.1875 2.80555556,171.5625 2.80555556,165.9375 L2.80836111,14.0625 C2.80555556,8.4375 8.41666667,2.8125 14.0277778,2.8125 L86.9722222,2.8125 C92.5833333,2.8125 98.1944444,8.4375 98.1944444,14.0625 L98.1944444,165.9375 L98.1944444,165.9375 Z" id="Fill-3" fill="#212528"></path>
                <path d="M85.5694444,12.6534375 C85.5694444,14.206725 84.3133411,15.4659375 82.7638889,15.4659375 C81.2144367,15.4659375 79.9583333,14.206725 79.9583333,12.6534375 C79.9583333,11.10015 81.2144367,9.8409375 82.7638889,9.8409375 C84.3133411,9.8409375 85.5694444,11.10015 85.5694444,12.6534375 L85.5694444,12.6534375 Z" id="Fill-4" fill="#94989B"></path>
                <path d="M58.9166667,12.7490625 C58.9166667,13.528125 58.5435278,14.158125 58.0778056,14.158125 L42.9221944,14.158125 C42.4620833,14.158125 42.0833333,13.5309375 42.0833333,12.7490625 C42.0833333,11.975625 42.4620833,11.345625 42.9221944,11.345625 L58.0778056,11.345625 C58.5435278,11.345625 58.9166667,11.975625 58.9166667,12.7490625" id="Fill-5" fill="#94989B"></path>
                <polygon id="Fill-6" fill="#3E4347" points="8.41666667 22.5 92.5833333 22.5 92.5833333 157.5 8.41666667 157.5"></polygon>
                <path d="M61.0208333,169.453125 C61.0208333,170.617503 60.0781667,171.5625 58.9166667,171.5625 L42.0833333,171.5625 C40.9218333,171.5625 39.9791667,170.617503 39.9791667,169.453125 L39.9791667,165.234375 C39.9791667,164.069997 40.9218333,163.125 42.0833333,163.125 L58.9166667,163.125 C60.0781667,163.125 61.0208333,164.069997 61.0208333,165.234375 L61.0208333,169.453125" id="Fill-7" fill="#94989B"></path>
                <path d="M28.0555556,41.2509375 C28.0555556,42.5446875 27.0090833,43.59375 25.7157222,43.59375 L16.3648056,43.59375 C15.07425,43.59375 14.0277778,42.5446875 14.0277778,41.2509375 L14.0277778,31.876875 C14.0277778,30.5803125 15.07425,29.53125 16.3648056,29.53125 L25.7157222,29.53125 C27.0090833,29.53125 28.0555556,30.5803125 28.0555556,31.876875 L28.0555556,41.2509375" id="Fill-8" fill="#80D9F5"></path>
                <path d="M47.6944444,41.2509375 C47.6944444,42.5446875 46.6479722,43.59375 45.3546111,43.59375 L36.0036944,43.59375 C34.7131389,43.59375 33.6666667,42.5446875 33.6666667,41.2509375 L33.6666667,31.876875 C33.6666667,30.5803125 34.7131389,29.53125 36.0036944,29.53125 L45.3546111,29.53125 C46.6479722,29.53125 47.6944444,30.5803125 47.6944444,31.876875 L47.6944444,41.2509375" id="Fill-9" fill="#FFDF7B"></path>
                <path d="M67.3333333,41.2509375 C67.3333333,42.5446875 66.2868611,43.59375 64.9935,43.59375 L55.6425833,43.59375 C54.3520278,43.59375 53.3055556,42.5446875 53.3055556,41.2509375 L53.3055556,31.876875 C53.3055556,30.5803125 54.3520278,29.53125 55.6425833,29.53125 L64.9935,29.53125 C66.2868611,29.53125 67.3333333,30.5803125 67.3333333,31.876875 L67.3333333,41.2509375" id="Fill-10" fill="#F3B074"></path>
                <path d="M86.9722222,41.2509375 C86.9722222,42.5446875 85.92575,43.59375 84.6323889,43.59375 L75.2814722,43.59375 C73.9909167,43.59375 72.9444444,42.5446875 72.9444444,41.2509375 L72.9444444,31.876875 C72.9444444,30.5803125 73.9909167,29.53125 75.2814722,29.53125 L84.6323889,29.53125 C85.92575,29.53125 86.9722222,30.5803125 86.9722222,31.876875 L86.9722222,41.2509375" id="Fill-11" fill="#80D9F5"></path>
                <path d="M28.0555556,149.540625 C28.0555556,150.834375 27.0090833,151.883432 25.7157222,151.883432 L16.3648056,151.883432 C15.07425,151.883432 14.0277778,150.834375 14.0277778,149.540625 L14.0277778,140.166562 C14.0277778,138.87 15.07425,137.820938 16.3648056,137.820938 L25.7157222,137.820938 C27.0090833,137.820938 28.0555556,138.87 28.0555556,140.166562 L28.0555556,149.540625" id="Fill-12" fill="#FFDF7B"></path>
                <path d="M47.6944444,149.540625 C47.6944444,150.834375 46.6479722,151.883432 45.3546111,151.883432 L36.0036944,151.883432 C34.7131389,151.883432 33.6666667,150.834375 33.6666667,149.540625 L33.6666667,140.166562 C33.6666667,138.87 34.7131389,137.820938 36.0036944,137.820938 L45.3546111,137.820938 C46.6479722,137.820938 47.6944444,138.87 47.6944444,140.166562 L47.6944444,149.540625" id="Fill-13" fill="#F08181"></path>
                <path d="M67.3333333,149.540625 C67.3333333,150.834375 66.2868611,151.883432 64.9935,151.883432 L55.6425833,151.883432 C54.3520278,151.883432 53.3055556,150.834375 53.3055556,149.540625 L53.3055556,140.166562 C53.3055556,138.87 54.3520278,137.820938 55.6425833,137.820938 L64.9935,137.820938 C66.2868611,137.820938 67.3333333,138.87 67.3333333,140.166562 L67.3333333,149.540625" id="Fill-14" fill="#80D9F5"></path>
                <path d="M86.9722222,149.540625 C86.9722222,150.834375 85.92575,151.883432 84.6323889,151.883432 L75.2814722,151.883432 C73.9909167,151.883432 72.9444444,150.834375 72.9444444,149.540625 L72.9444444,140.166562 C72.9444444,138.87 73.9909167,137.820938 75.2814722,137.820938 L84.6323889,137.820938 C85.92575,137.820938 86.9722222,138.87 86.9722222,140.166562 L86.9722222,149.540625" id="Fill-15" fill="#C28FEF"></path>
                <path d="M28.0555556,95.3915625 C28.0555556,96.6853125 27.0090833,97.734375 25.7157222,97.734375 L16.3648056,97.734375 C15.07425,97.734375 14.0277778,96.6853125 14.0277778,95.3915625 L14.0277778,86.0175 C14.0277778,84.7209375 15.07425,83.671875 16.3648056,83.671875 L25.7157222,83.671875 C27.0090833,83.671875 28.0555556,84.7209375 28.0555556,86.0175 L28.0555556,95.3915625" id="Fill-16" fill="#FFDF7B"></path>
                <path d="M47.6944444,95.3915625 C47.6944444,96.6853125 46.6479722,97.734375 45.3546111,97.734375 L36.0036944,97.734375 C34.7131389,97.734375 33.6666667,96.6853125 33.6666667,95.3915625 L33.6666667,86.0175 C33.6666667,84.7209375 34.7131389,83.671875 36.0036944,83.671875 L45.3546111,83.671875 C46.6479722,83.671875 47.6944444,84.7209375 47.6944444,86.0175 L47.6944444,95.3915625" id="Fill-17" fill="#C28FEF"></path>
                <path d="M67.3333333,95.3915625 C67.3333333,96.6853125 66.2868611,97.734375 64.9935,97.734375 L55.6425833,97.734375 C54.3520278,97.734375 53.3055556,96.6853125 53.3055556,95.3915625 L53.3055556,86.0175 C53.3055556,84.7209375 54.3520278,83.671875 55.6425833,83.671875 L64.9935,83.671875 C66.2868611,83.671875 67.3333333,84.7209375 67.3333333,86.0175 L67.3333333,95.3915625" id="Fill-18" fill="#80D9F5"></path>
                <path d="M28.0555556,77.34375 C28.0555556,78.6403125 27.0090833,79.689375 25.7157222,79.689375 L16.3648056,79.689375 C15.07425,79.689375 14.0277778,78.6403125 14.0277778,77.34375 L14.0277778,67.9696875 C14.0277778,66.6759375 15.07425,65.626875 16.3648056,65.626875 L25.7157222,65.626875 C27.0090833,65.626875 28.0555556,66.6759375 28.0555556,67.9696875 L28.0555556,77.34375" id="Fill-19" fill="#F08181"></path>
                <path d="M47.6944444,77.34375 C47.6944444,78.6403125 46.6479722,79.689375 45.3546111,79.689375 L36.0036944,79.689375 C34.7131389,79.689375 33.6666667,78.6403125 33.6666667,77.34375 L33.6666667,67.9696875 C33.6666667,66.6759375 34.7131389,65.626875 36.0036944,65.626875 L45.3546111,65.626875 C46.6479722,65.626875 47.6944444,66.6759375 47.6944444,67.9696875 L47.6944444,77.34375" id="Fill-20" fill="#F3B074"></path>
                <path d="M67.3333333,77.34375 C67.3333333,78.6403125 66.2868611,79.689375 64.9935,79.689375 L55.6425833,79.689375 C54.3520278,79.689375 53.3055556,78.6403125 53.3055556,77.34375 L53.3055556,67.9696875 C53.3055556,66.6759375 54.3520278,65.626875 55.6425833,65.626875 L64.9935,65.626875 C66.2868611,65.626875 67.3333333,66.6759375 67.3333333,67.9696875 L67.3333333,77.34375" id="Fill-21" fill="#FFDF7B"></path>
                <path d="M86.9722222,77.34375 C86.9722222,78.6403125 85.92575,79.689375 84.6323889,79.689375 L75.2814722,79.689375 C73.9909167,79.689375 72.9444444,78.6403125 72.9444444,77.34375 L72.9444444,67.9696875 C72.9444444,66.6759375 73.9909167,65.626875 75.2814722,65.626875 L84.6323889,65.626875 C85.92575,65.626875 86.9722222,66.6759375 86.9722222,67.9696875 L86.9722222,77.34375" id="Fill-22" fill="#F3B074"></path>
                <path d="M28.0555556,59.2875 C28.0555556,60.5840625 27.0090833,61.633125 25.7157222,61.633125 L16.3648056,61.633125 C15.07425,61.633125 14.0277778,60.5840625 14.0277778,59.2875 L14.0277778,49.9134375 C14.0277778,48.6196875 15.07425,47.570625 16.3648056,47.570625 L25.7157222,47.570625 C27.0090833,47.570625 28.0555556,48.6196875 28.0555556,49.9134375 L28.0555556,59.2875" id="Fill-23" fill="#C28FEF"></path>
                <path d="M47.6944444,59.2875 C47.6944444,60.5840625 46.6479722,61.633125 45.3546111,61.633125 L36.0036944,61.633125 C34.7131389,61.633125 33.6666667,60.5840625 33.6666667,59.2875 L33.6666667,49.9134375 C33.6666667,48.6196875 34.7131389,47.570625 36.0036944,47.570625 L45.3546111,47.570625 C46.6479722,47.570625 47.6944444,48.6196875 47.6944444,49.9134375 L47.6944444,59.2875" id="Fill-24" fill="#80D9F5"></path>
                <path d="M67.3333333,59.2875 C67.3333333,60.5840625 66.2868611,61.633125 64.9935,61.633125 L55.6425833,61.633125 C54.3520278,61.633125 53.3055556,60.5840625 53.3055556,59.2875 L53.3055556,49.9134375 C53.3055556,48.6196875 54.3520278,47.570625 55.6425833,47.570625 L64.9935,47.570625 C66.2868611,47.570625 67.3333333,48.6196875 67.3333333,49.9134375 L67.3333333,59.2875" id="Fill-25" fill="#F08181"></path>
                <path d="M86.9722222,59.2875 C86.9722222,60.5840625 85.92575,61.633125 84.6323889,61.633125 L75.2814722,61.633125 C73.9909167,61.633125 72.9444444,60.5840625 72.9444444,59.2875 L72.9444444,49.9134375 C72.9444444,48.6196875 73.9909167,47.570625 75.2814722,47.570625 L84.6323889,47.570625 C85.92575,47.570625 86.9722222,48.6196875 86.9722222,49.9134375 L86.9722222,59.2875" id="Fill-26" fill="#C28FEF"></path>
            </g>
        </g>
    </g>
</svg>