<svg width="193" height="193" viewBox="0 0 193 193" version="2.0" xmlns="http://www.w3.org/2000/svg" xmlns:xlink="http://www.w3.org/1999/xlink" xmlns:figma="http://www.figma.com/figma/ns">
<title>circle-app-icon</title>
<desc>Created using Figma (9000)</desc>
<g id="Canvas" transform="translate(643 5069)" figma:type="canvas">
<g id="circle-app-icon" style="mix-blend-mode:normal;" figma:type="group">
<mask id="mask0_outline" mask-type="alpha">
<g id="Mask" style="mix-blend-mode:normal;" figma:type="vector">
<use xlink:href="#path0_fill" transform="matrix(1 0 0 1 -643 -5069)" style="mix-blend-mode:normal;"/>
</g>
</mask>
<g id="Rectangle 2 + Oval 1" style="mix-blend-mode:normal;" mask="url(#mask0_outline)" figma:type="group">
<g id="Rectangle 2" style="mix-blend-mode:normal;" figma:type="vector">
<use xlink:href="#path1_fill" transform="matrix(1 0 0 1 -643 -5069)" fill="#FFFFFF" style="mix-blend-mode:normal;"/>
</g>
<g id="circle-white" style="mix-blend-mode:normal;" figma:type="vector-operation">
<use xlink:href="#path2_fill" transform="matrix(1 0 0 1 -628.447 -5005.3)" fill="#00B7D9" style="mix-blend-mode:normal;"/>
<use xlink:href="#path3_fill" transform="matrix(1 0 0 1 -628.447 -5005.3)" fill="#00B7D9" style="mix-blend-mode:normal;"/>
<use xlink:href="#path4_fill" transform="matrix(1 0 0 1 -628.447 -5005.3)" fill="#00B7D9" style="mix-blend-mode:normal;"/>
<use xlink:href="#path5_fill" transform="matrix(1 0 0 1 -628.447 -5005.3)" fill="#00B7D9" style="mix-blend-mode:normal;"/>
<use xlink:href="#path6_fill" transform="matrix(1 0 0 1 -628.447 -5005.3)" fill="#00B7D9" style="mix-blend-mode:normal;"/>
<use xlink:href="#path7_fill" transform="matrix(1 0 0 1 -628.447 -5005.3)" fill="#00B7D9" style="mix-blend-mode:normal;"/>
<use xlink:href="#path8_fill" transform="matrix(1 0 0 1 -628.447 -5005.3)" fill="#00B7D9" style="mix-blend-mode:normal;"/>
</g>
<g id="Imported Layers" style="mix-blend-mode:normal;" figma:type="group">
<g id="With" style="mix-blend-mode:normal;" figma:type="text">
<use xlink:href="#path9_fill" transform="matrix(1 0 0 1 -521.093 -4949.45)" fill="#00B7D9" style="mix-blend-mode:normal;"/>
</g>
<g id="Fill 1" style="mix-blend-mode:normal;" figma:type="vector-operation">
<use xlink:href="#path10_fill" transform="matrix(1 0 0 1 -504.709 -4953.71)" fill="#00B7D9" style="mix-blend-mode:normal;"/>
</g>
<g id="Fill 2" style="mix-blend-mode:normal;" figma:type="vector">
<use xlink:href="#path11_fill" transform="matrix(1 0 0 1 -488.097 -4947.68)" fill="#00B7D9" style="mix-blend-mode:normal;"/>
</g>
<g id="Fill 3" style="mix-blend-mode:normal;" figma:type="vector-operation">
<use xlink:href="#path12_fill" transform="matrix(1 0 0 1 -489.476 -4952.63)" fill="#00B7D9" style="mix-blend-mode:normal;"/>
</g>
<g id="Fill 4" style="mix-blend-mode:normal;" figma:type="vector">
<use xlink:href="#path13_fill" transform="matrix(1 0 0 1 -486.31 -4947.79)" fill="#00B7D9" style="mix-blend-mode:normal;"/>
</g>
<g id="Fill 5" style="mix-blend-mode:normal;" figma:type="vector">
<use xlink:href="#path14_fill" transform="matrix(1 0 0 1 -480.471 -4948.47)" fill="#00B7D9" style="mix-blend-mode:normal;"/>
</g>
<g id="Fill 6" style="mix-blend-mode:normal;" figma:type="vector">
<use xlink:href="#path15_fill" transform="matrix(1 0 0 1 -475.395 -4947.77)" fill="#00B7D9" style="mix-blend-mode:normal;"/>
</g>
<g id="Fill 7" style="mix-blend-mode:normal;" figma:type="vector-operation">
<use xlink:href="#path16_fill" transform="matrix(1 0 0 1 -471.408 -4947.82)" fill="#00B7D9" style="mix-blend-mode:normal;"/>
</g>
</g>
</g>
</g>
</g>
<defs>
<path id="path0_fill" fill-rule="evenodd" d="
M 59.5084 0
C 38.5381 0 25.2432 0.0812329 12.6766 12.6469
C 0.0795367 25.2438 0 38.6023 0 59.5084
L 0 133.492
C 0 154.463 0.0823636 167.759 12.6469 180.324
C 25.2504 192.927 38.6033 193 59.5084 193
L 133.492 193
C 154.463 193 167.755 192.922 180.324 180.353
C 192.918 167.758 193 154.397 193 133.492
L 193 59.5084
C 193 38.5379 192.919 25.2427 180.353 12.6766
C 167.751 0.0738827 154.397 0 133.492 0
L 59.5084 0
Z"/>
<path id="path1_fill" fill-rule="evenodd" d="
M 0 0
L 192.998 0
L 192.998 192.998
L 0 192.998
L 0 0
Z"/>
<path id="path2_fill" d="
M 18.5462 49.3189
C 7.66485 49.3189 0 41.557 0 31.1162
C 0 20.8128 7.66485 12.9136 18.5462 12.9136
C 27.2376 12.9136 31.5491 17.9966 31.5491 17.9966
L 28.401 22.6675
C 28.401 22.6675 24.7055 18.6835 18.8199 18.6835
C 11.8395 18.6835 6.77518 23.9039 6.77518 31.0475
C 6.77518 38.1225 11.8395 43.549 19.0253 43.549
C 25.4583 43.549 29.7013 38.8781 29.7013 38.8781
L 32.3703 43.7551
C 32.3703 43.7551 27.5798 49.3189 18.5462 49.3189
Z"/>
<path id="path3_fill" d="
M 64.5256 48.4946
L 57.8873 48.4946
L 57.8873 13.7379
L 64.3203 13.7334
L 64.3203 19.7825
C 64.3203 21.225 64.1834 22.3927 64.1834 22.3927
L 64.3203 22.3927
C 65.8944 17.3097 69.9321 13.3257 75.2701 13.3257
C 76.1598 13.3257 76.981 13.4631 76.981 13.4631
L 76.981 20.0573
C 76.981 20.0573 76.0913 19.8512 75.0648 19.8512
C 70.8218 19.8512 66.9209 22.8735 65.3469 28.0252
C 64.7309 30.0172 64.5256 32.1466 64.5256 34.2759
L 64.5256 48.4946
Z"/>
<path id="path4_fill" d="
M 97.5312 49.3189
C 86.6498 49.3189 78.985 41.557 78.985 31.1162
C 78.985 20.8128 86.6498 12.9136 97.5312 12.9136
C 106.223 12.9136 110.534 17.9966 110.534 17.9966
L 107.386 22.6675
C 107.386 22.6675 103.69 18.6835 97.8049 18.6835
C 90.8244 18.6835 85.7602 23.9039 85.7602 31.0475
C 85.7602 38.1225 90.8244 43.549 98.0102 43.549
C 104.443 43.549 108.686 38.8781 108.686 38.8781
L 111.355 43.7551
C 111.355 43.7551 106.565 49.3189 97.5312 49.3189
Z"/>
<path id="path5_fill" d="
M 126.832 48.7694
C 123.068 48.7694 117.524 47.739 117.524 39.0155
L 117.524 0
L 124.163 0
L 124.163 37.8478
C 124.163 42.0378 125.805 42.7934 127.858 42.7934
C 128.474 42.7934 129.021 42.7247 129.021 42.7247
L 129.021 48.632
C 129.021 48.632 127.995 48.7694 126.832 48.7694
Z"/>
<path id="path6_fill" d="
M 48.3001 48.7694
C 44.5361 48.7694 38.9928 47.739 38.9928 39.0155
L 38.9928 13.7334
L 45.6311 13.7334
L 45.6311 37.8478
C 45.6311 42.0378 47.2735 42.7934 49.3266 42.7934
C 49.9425 42.7934 50.49 42.7247 50.49 42.7247
L 50.49 48.632
C 50.49 48.632 49.4635 48.7694 48.3001 48.7694
Z"/>
<path id="path7_fill" fill-rule="evenodd" d="
M 150.119 49.3189
C 139.238 49.3189 131.778 41.4196 131.778 31.1162
C 131.778 20.0573 139.238 12.9136 149.093 12.9136
C 158.879 12.9136 164.08 20.1946 164.08 29.1929
C 164.08 30.0859 163.875 32.0779 163.875 32.0779
L 138.622 32.0779
C 138.964 39.7024 144.371 43.549 150.53 43.549
C 156.484 43.549 160.795 39.4963 160.795 39.4963
L 163.533 44.3733
C 163.533 44.3733 158.4 49.3189 150.119 49.3189
Z
M 138.827 27.0636
C 139.785 21.3624 143.891 18.2027 148.956 18.2027
C 153.404 18.2027 157.1 21.0876 157.305 27.0636
L 138.827 27.0636
Z"/>
<path id="path8_fill" d="
M 46.4937 4.2403
C 46.4937 6.58215 44.6022 8.4806 42.269 8.4806
C 39.9358 8.4806 38.0443 6.58215 38.0443 4.2403
C 38.0443 1.89845 39.9358 0 42.269 0
C 44.6022 0 46.4937 1.89845 46.4937 4.2403
Z"/>
<path id="path9_fill" d="
M 7.05536 3.07143
C 7.09546 3.17838 7.16899 3.24188 7.26925 3.24188
L 7.30936 3.24188
C 7.40962 3.24188 7.48649 3.17838 7.52326 3.07143
L 8.04463 1.54407
L 8.56601 3.07143
C 8.60277 3.17838 8.6763 3.24188 8.77656 3.24188
L 8.81667 3.24188
C 8.91693 3.24188 8.9938 3.17504 9.03056 3.07143
L 9.72239 1.13299
C 9.73242 1.10959 9.74244 1.07617 9.74244 1.04943
C 9.74244 0.939143 9.64886 0.852247 9.53857 0.852247
C 9.43831 0.852247 9.36812 0.915748 9.33804 0.999302
L 8.79996 2.61022
L 8.2719 1.00933
C 8.24182 0.912406 8.16829 0.845563 8.06468 0.845563
L 8.03461 0.845563
C 7.931 0.845563 7.86081 0.912406 7.82739 1.00933
L 7.29933 2.61022
L 6.76125 1.00264
C 6.73451 0.915748 6.65764 0.852247 6.55738 0.852247
C 6.44374 0.852247 6.34682 0.939143 6.34682 1.05278
C 6.34682 1.07951 6.35351 1.10959 6.36353 1.13299
L 7.05536 3.07143
Z
M 10.0689 0.989275
C 10.0689 1.10959 10.1692 1.1898 10.2995 1.1898
C 10.4299 1.1898 10.5301 1.10959 10.5301 0.989275
L 10.5301 0.969223
C 10.5301 0.848905 10.4299 0.772036 10.2995 0.772036
C 10.1692 0.772036 10.0689 0.848905 10.0689 0.969223
L 10.0689 0.989275
Z
M 10.099 3.02464
C 10.099 3.13828 10.1892 3.22517 10.2995 3.22517
C 10.4132 3.22517 10.5034 3.13828 10.5034 3.02464
L 10.5034 1.62763
C 10.5034 1.51399 10.4132 1.42375 10.2995 1.42375
C 10.1859 1.42375 10.099 1.51399 10.099 1.62763
L 10.099 3.02464
Z
M 11.6153 3.23854
C 11.7222 3.23854 11.8058 3.22183 11.8927 3.19175
C 11.9495 3.16836 11.9996 3.1082 11.9996 3.03467
C 11.9996 2.94109 11.9194 2.86756 11.8292 2.86756
C 11.8158 2.86756 11.7757 2.87759 11.7289 2.87759
C 11.5919 2.87759 11.5117 2.81409 11.5117 2.65701
L 11.5117 1.79139
L 11.8292 1.79139
C 11.9261 1.79139 12.0063 1.71452 12.0063 1.6176
C 12.0063 1.52068 11.9261 1.44381 11.8292 1.44381
L 11.5117 1.44381
L 11.5117 1.14301
C 11.5117 1.03272 11.4214 0.942485 11.3112 0.942485
C 11.1975 0.942485 11.1073 1.03272 11.1073 1.14301
L 11.1073 1.44381
L 11.0404 1.44381
C 10.9435 1.44381 10.8667 1.52068 10.8667 1.6176
C 10.8667 1.71452 10.9435 1.79139 11.0404 1.79139
L 11.1073 1.79139
L 11.1073 2.72051
C 11.1073 3.1082 11.3178 3.23854 11.6153 3.23854
Z
M 12.3896 3.02464
C 12.3896 3.13828 12.4799 3.22517 12.5902 3.22517
C 12.7038 3.22517 12.794 3.13828 12.794 3.02464
L 12.794 2.2125
C 12.794 1.93845 12.9578 1.77468 13.1917 1.77468
C 13.4324 1.77468 13.5694 1.93176 13.5694 2.20582
L 13.5694 3.02464
C 13.5694 3.13828 13.6596 3.22517 13.7733 3.22517
C 13.8869 3.22517 13.9738 3.13828 13.9738 3.02464
L 13.9738 2.08216
C 13.9738 1.67442 13.7432 1.40704 13.3455 1.40704
C 13.0714 1.40704 12.9077 1.55076 12.794 1.71452
L 12.794 0.952512
C 12.794 0.842221 12.7038 0.751983 12.5902 0.751983
C 12.4765 0.751983 12.3896 0.842221 12.3896 0.952512
L 12.3896 3.02464
Z"/>
<path id="path10_fill" fill-rule="evenodd" d="
M 0.561538 0.540978
C 0.839963 0.24472 2.08314 0.0524514 3.61748 0.00980814
L 3.61373 0.00382313
C 9.37533 -0.153283 15.9999 4.5659 16.0104 7.84494
C 16.0194 10.2913 13.3376 12.0748 9.99355 12.0846
C 9.13957 12.0846 8.32899 11.9791 7.58503 11.7876
C 7.53264 12.1564 7.37396 12.5058 6.89421 12.5058
C 6.24155 12.511 6.09785 12.0023 6.05968 11.2646
C 3.75669 10.2659 2.33088 8.62224 2.33088 7.96987
C 2.32789 7.17462 4.09798 6.36365 6.08812 6.06589
C 6.13228 5.1255 6.2655 3.428 6.7273 3.42276
C 7.28265 3.42276 7.4271 4.96839 7.46079 5.94694
C 7.51318 5.94694 7.56632 5.9417 7.61422 5.9417
C 8.34148 5.93971 8.96549 5.98143 9.49803 6.05653
C 11.5649 6.348 12.2539 7.14235 12.2539 7.83596
C 12.2563 8.19485 12.0338 8.48205 11.8205 8.66815
C 11.6435 8.82266 11.4728 8.90748 11.4426 8.90578
C 11.0736 8.88109 10.6514 8.90952 10.647 8.72249
C 10.647 8.46888 11.1065 8.28633 11.1065 8.02299
C 11.102 7.71626 9.3656 7.25092 8.04608 7.25467
C 7.87842 7.25467 7.68607 7.25467 7.48025 7.2599
C 7.48152 7.31778 7.48288 7.3775 7.48429 7.43882
C 7.50865 8.49114 7.55271 10.0142 7.57605 10.7664
C 8.16134 10.8711 8.78031 10.9437 9.4135 10.9384
C 10.0816 10.9365 10.9519 10.8577 11.7797 10.6301
C 13.1684 10.2484 14.4375 9.44775 14.4319 7.88833
C 14.4222 4.69009 8.15161 0.915789 2.69688 0.934493
C 2.39475 0.934493 1.94726 0.947608 1.56192 0.986843
C 1.13968 1.02984 0.792062 1.10419 0.792062 1.22701
C 0.792062 1.42751 1.11839 1.3901 1.11839 1.59135
C 1.12288 1.74022 0.897594 1.75893 0.648359 1.75893
C 0.398375 1.75893 -0.0102807 1.73125 0.000197613 1.38038
C 0.010676 1.02576 0.317542 0.805067 0.561538 0.540978
Z
M 2.72008 8.17187
C 2.72008 7.6003 4.46173 7.38484 6.06941 7.30255
C 6.05444 8.2003 6.04471 9.49007 6.04471 10.3482
C 4.06879 9.65316 2.72008 8.54518 2.72008 8.17187
Z"/>
<path id="path11_fill" fill-rule="evenodd" d="
M 0.597012 0
C 0.031929 0.00598501 0.0184568 2.27954 0.00348775 3.10772
C -0.0346834 5.00796 0.242245 5.23315 0.746702 5.22791
C 1.19727 5.22791 1.3552 5.17479 1.31328 3.58801
C 1.24592 0.585783 1.0386 0.00598501 0.597012 0.00598501
L 0.597012 0"/>
<path id="path12_fill" fill-rule="evenodd" d="
M 5.50787 1.48204
C 5.51311 2.6566 3.52073 4.07654 2.27006 4.08178
C 1.87188 4.08627 1.53583 4.03764 1.2574 3.9516
C 1.16235 4.12442 1.0164 4.26432 0.773153 4.26432
C 0.55161 4.26432 0.388448 4.08627 0.378718 3.4152
C 0.101041 3.09276 0 2.70897 0 2.39849
C 0 1.55386 1.26264 0.00448876 3.20862 0
C 3.83882 0 4.25945 0.306732 4.54761 0.580546
C 5.23469 0.680795 5.50787 0.950121 5.50787 1.48204
Z
M 2.49085 1.03092
C 1.89059 1.38628 1.27611 1.87481 0.868206 2.37006
C 0.849495 2.30124 0.839765 2.23989 0.839765 2.18154
C 0.834526 1.80224 1.39138 1.2187 2.49085 1.03092
Z
M 2.39879 3.12642
C 2.10615 3.12642 1.8659 3.09276 1.66082 3.03066
C 2.19334 2.4274 3.4651 1.30325 4.14334 1.23198
C 4.16574 1.22963 4.1875 1.22842 4.20856 1.22842
C 4.53294 1.22448 4.65449 1.41903 4.69469 1.57083
C 4.70782 1.62042 4.71227 1.66544 4.71227 1.6975
C 4.71227 2.48902 3.09561 3.13091 2.39879 3.13091
L 2.39879 3.12642
Z"/>
<path id="path13_fill" fill-rule="evenodd" d="
M 5.57973 0.513314
C 5.57599 -0.00887869 4.22203 -0.00364177 3.46385 0.000846987
C 2.89353 0.000846987 -0.00448551 0.0681783 5.21342e-06 1.68413
C 0.00599284 2.77714 1.62265 2.5138 2.69668 2.61929
C 3.57462 2.70532 4.64042 2.98812 4.64042 3.27689
C 4.64416 3.91505 2.32246 4.1724 1.8427 4.17764
C 0.859979 4.17764 0.83528 3.89485 0.83528 3.74597
C 0.83528 3.60233 0.998443 3.35769 1.36818 3.35769
C 1.73717 3.35769 2.49535 3.82751 3.01852 3.82751
C 3.54094 3.82303 3.98253 3.5926 3.97804 3.35769
C 3.97804 2.93126 2.24088 2.71954 1.70423 2.72403
C 1.14289 2.72926 0.33157 2.96044 0.33157 3.80432
C 0.337558 4.23973 1.05083 5.28038 3.07166 5.2714
C 5.06105 5.26616 5.56626 4.13425 5.56102 3.5537
C 5.55727 2.1345 4.21679 1.97665 3.04696 1.8764
C 2.17352 1.80383 1.22373 1.76044 1.22822 1.56892
C 1.23944 0.921043 5.57973 1.40134 5.57599 0.518551
L 5.57973 0.513314"/>
<path id="path14_fill" fill-rule="evenodd" d="
M 3.04625 0
C 2.88383 0 2.85539 0.172817 2.85539 0.359101
C 2.85913 0.911218 3.62256 2.84363 3.62256 3.57754
C 3.62256 3.73091 3.60834 4.00472 3.49233 4.03764
C 3.31045 4.09076 1.70726 1.17082 1.04713 1.12743
C 0.360796 1.07955 -0.0044498 3.98976 4.09183e-05 4.70946
C 0.00602855 5.42841 0.129523 5.9087 0.657932 5.9087
C 1.44905 5.90347 1.0359 2.99325 1.35923 2.99325
C 1.5935 2.99325 2.88383 5.65359 3.59936 5.65359
C 4.377 5.6491 4.83655 4.51345 4.83206 3.7743
C 4.82757 2.08204 3.69965 0.00523689 3.04625 0.00523689
L 3.04625 0"/>
<path id="path15_fill" fill-rule="evenodd" d="
M 3.34409 3.79885
C 3.06716 3.79885 1.51637 4.14374 1.41533 4.04873
C 1.31503 3.95222 1.50215 3.06045 1.69899 2.99836
C 1.89509 2.93551 3.10384 2.95496 3.30068 2.94
C 3.86202 2.91157 3.75799 2.14923 3.41145 2.12006
C 3.23407 2.10584 2.13459 2.1006 2.07696 2.00036
C 2.02008 1.89936 2.09268 1.39662 2.21692 1.3435
C 2.46616 1.2425 4.13147 1.19537 4.25421 1.16171
C 4.46153 1.11308 4.61571 1.0031 4.66436 0.826545
C 4.71601 0.648491 4.08805 -0.076444 3.30592 0.00659805
C 1.97143 0.154727 0.239505 0.145001 0.239505 0.581159
C 0.239505 0.98814 1.05158 1.15123 1.07029 1.26644
C 1.09424 1.37642 0.964757 1.8036 0.91985 1.93302
C 0.874943 2.07741 0.294142 2.12006 0.254474 2.51806
C 0.244744 2.60933 0.398177 2.75372 0.365245 2.86369
C 0.273934 3.20484 0 3.89012 0 4.17815
C 0.00523918 4.6188 0.327074 5.60633 1.23869 5.57864
C 2.66899 5.53002 3.95333 4.53202 3.97204 4.35471
C 4.00647 4.09137 3.6083 3.78464 3.33436 3.78464
L 3.34409 3.79885"/>
<path id="path16_fill" fill-rule="evenodd" d="
M 1.66069 2.95651
C 1.66069 3.0575 1.69437 3.16748 1.74676 3.28269
C 2.2473 2.64491 2.94986 1.83248 3.60609 1.24432
C 4.0999 0.801724 4.56747 0.486121 4.90299 0.46749
L 4.90299 0.471979
C 5.03907 0.462648 5.31396 0.540602 5.56384 0.789503
C 5.83486 1.05946 6.07644 1.5305 6.07956 2.30938
C 6.0833 3.80937 4.27504 5.54652 2.6449 5.55101
C 2.56257 5.55101 2.48473 5.54054 2.41288 5.53605
C 2.25047 6.2131 1.78942 7.79539 1.50201 8.65723
C 1.29544 9.26247 1.26101 10.149 1.10384 10.1827
C 0.69593 10.2694 0.00959748 9.60361 0.000616036 8.92656
C -0.0240829 7.61734 0.70042 5.45525 1.00354 4.48643
C 0.815682 4.11685 0.730359 3.70912 0.730359 3.3777
C 0.727644 2.72139 1.00046 2.04324 1.3388 1.46624
C 1.74673 0.770547 2.24991 0.221892 2.48024 0.0358208
C 2.69131 -0.136248 2.88815 0.34779 2.71601 0.717364
C 2.55135 1.07198 1.66069 2.48594 1.66069 2.95651
Z
M 4.98831 1.53282
C 5.2353 1.53656 5.32961 1.78045 5.32961 2.15003
C 5.3356 3.26399 3.98688 4.18343 3.02736 4.16997
C 3.35658 3.59532 3.76311 2.92717 4.13049 2.4072
C 4.49059 1.89754 4.81308 1.53023 4.98831 1.53282
Z"/>
</defs>
</svg>
