<?xml version="1.0" encoding="UTF-8" standalone="no"?>
<svg width="193px" height="193px" viewBox="0 0 193 193" version="1.1" xmlns="http://www.w3.org/2000/svg" xmlns:xlink="http://www.w3.org/1999/xlink">
    <!-- Generator: Sketch 3.7.2 (28276) - http://www.bohemiancoding.com/sketch -->
    <title>icon-airtime</title>
    <desc>Created with Sketch.</desc>
    <defs></defs>
    <g id="Page-1" stroke="none" stroke-width="1" fill="none" fill-rule="evenodd" opacity="0.75">
        <g id="icon-airtime">
            <g id="Group" transform="translate(8.000000, 0.000000)">
                <g>
                    <g id="Rectangle-2" transform="translate(70.609756, 6.590244)" fill="#EB5757">
                        <g id="path0_fill-link" transform="translate(53.192683, 89.523756) scale(-1, 1) translate(-53.192683, -89.523756) translate(0.470732, 0.084732)">
                            <path d="M66.2397654,11.7289395 C70.9771151,1.56228322 83.0475234,-2.83366366 93.1998883,1.91028576 C103.351971,6.65424459 107.742015,18.7417122 103.004571,28.9082932 L38.6725868,166.97042 C33.9352371,177.137283 21.8648288,181.532976 11.7124639,176.789883 C1.56008961,172.045849 -2.82969068,159.9584 1.90760259,149.791537 L66.2397654,11.7289395 L66.2397654,11.7289395 Z" id="path0_fill"></path>
                        </g>
                    </g>
                    <g id="Ellipse-2" transform="translate(71.551220, 144.043902)" fill="#FFD54F">
                        <g id="path1_fill-link" transform="translate(0.065902, 0.706098)">
                            <path d="M40.5704829,20.3137678 C40.5704829,31.5328107 31.4884678,40.6275356 20.2852415,40.6275356 C9.08201512,40.6275356 0,31.5328107 0,20.3137678 C0,9.09479078 9.08201512,0 20.2852415,0 C31.4884678,0 40.5704829,9.09479078 40.5704829,20.3137678 L40.5704829,20.3137678 Z" id="path1_fill"></path>
                        </g>
                    </g>
                    <g id="Rectangle-2" fill="#56CCF2">
                        <g id="path2_fill-link" transform="translate(59.961023, 96.238470) rotate(25.045581) translate(-59.961023, -96.238470) translate(39.248828, -0.261530)">
                            <path d="M1.57435624e-08,20.2903295 C1.57435624e-08,9.08429533 9.08429058,5.25201334e-09 20.2903189,5.25201334e-09 L20.2903189,5.25201334e-09 C31.4963661,5.25201334e-09 40.5806378,9.08429533 40.5806378,20.2903295 L40.5806378,172.641831 C40.5806378,183.848072 31.4963661,192.932254 20.2903189,192.932254 L20.2903189,192.932254 C9.08429058,192.932254 1.57435624e-08,183.848072 1.57435624e-08,172.641831 L1.57435624e-08,20.2903295 L1.57435624e-08,20.2903295 Z" id="path2_fill"></path>
                        </g>
                    </g>
                </g>
            </g>
        </g>
    </g>
</svg>