<?xml version="1.0" encoding="UTF-8" standalone="no"?>
<svg width="407px" height="684px" viewBox="0 0 407 684" version="1.1" xmlns="http://www.w3.org/2000/svg" xmlns:xlink="http://www.w3.org/1999/xlink">
    <!-- Generator: Sketch 3.7.2 (28276) - http://www.bohemiancoding.com/sketch -->
    <title>rewards</title>
    <desc>Created with Sketch.</desc>
    <defs>
        <polygon id="path-1" points="0.548028591 146.709736 181.225962 146.709736 181.225962 0.697653696 0.548028591 0.697653696"></polygon>
        <polygon id="path-3" points="0.541501638 58.7230233 0.541501638 116.748357 154.391111 116.748357 154.391111 0.697696079 0.541501638 0.697696079 0.541501638 58.7230233 0.541501638 0.697686298 154.391121 0.697686298 154.391121 116.748351 0.541501638 116.748351 0.541501638 58.7230233"></polygon>
        <polygon id="path-5" points="0.541501638 58.7230233 0.541501638 116.748357 154.391111 116.748357 154.391111 0.697696079 0.541501638 0.697696079 0.541501638 58.7230233 0.541501638 0.697686298 154.391121 0.697686298 154.391121 116.748351 0.541501638 116.748351 0.541501638 58.7230233"></polygon>
        <filter x="-50%" y="-50%" width="200%" height="200%" filterUnits="objectBoundingBox" id="filter-7">
            <feOffset dx="0" dy="2" in="SourceAlpha" result="shadowOffsetOuter1"></feOffset>
            <feGaussianBlur stdDeviation="5" in="shadowOffsetOuter1" result="shadowBlurOuter1"></feGaussianBlur>
            <feColorMatrix values="0 0 0 0 0   0 0 0 0 0   0 0 0 0 0  0 0 0 0.1 0" type="matrix" in="shadowBlurOuter1" result="shadowMatrixOuter1"></feColorMatrix>
            <feMerge>
                <feMergeNode in="shadowMatrixOuter1"></feMergeNode>
                <feMergeNode in="SourceGraphic"></feMergeNode>
            </feMerge>
        </filter>
        <polygon id="path-8" points="171.128756 4.63304608e-14 0.00325492762 4.63304608e-14 0.00325492762 166.173195 171.128756 166.173195 171.128756 0"></polygon>
    </defs>
    <g id="Page-1" stroke="none" stroke-width="1" fill="none" fill-rule="evenodd">
        <g id="rewards">
            <g id="Page-1" transform="translate(109.000000, 117.000000)">
                <path d="M134.021007,44.0314286 L126.941975,44.0314286 C126.941975,40.7911429 126.458529,37.5948571 125.504194,34.54 C121.338395,21.1451429 109.110976,12.1471429 95.08476,12.1471429 C81.0930763,12.1471429 68.8750747,21.1168571 64.6841621,34.474 C63.7172699,37.5571429 63.2275452,40.7597143 63.2275452,44.0408571 L56.148513,44.0408571 C56.148513,40.0525714 56.7481117,36.1177143 57.9284736,32.3494286 C60.3959323,24.4922857 65.1990008,17.7225714 71.8291188,12.7757143 C78.5848072,7.72828571 86.6307317,5.06 95.0816208,5.06 C103.551345,5.06 111.606688,7.73771429 118.371794,12.8008571 C124.914013,17.6942857 129.842651,24.6651429 132.263021,32.4311429 C133.427687,36.1742857 134.021007,40.0808571 134.021007,44.0377143" id="Fill-1" fill="#D3976E"></path>
                <path d="M88.3604642,26.3214286 C80.5688198,10.6731429 65.1016837,0 47.2675452,0 C21.6260661,0 0.819051133,22.0942857 0.819051133,49.3397143 C0.819051133,61.9425714 5.2799402,73.4548571 12.6101133,82.1731429 C12.6101133,82.1731429 31.5084579,32.7517143 88.3604642,26.3214286" id="Fill-3" fill="#FFDD7D"></path>
                <path d="M88.3604642,26.3214286 C31.5084579,32.7517143 12.6101133,82.1762857 12.6101133,82.1762857 C47.6693706,78.804 76.7891503,56.5274286 88.3604642,26.3214286" id="Fill-4" fill="#594640"></path>
                <path d="M101.655232,26.3214286 C109.443737,10.6731429 124.917152,0 142.748151,0 C168.399048,0 189.193509,22.0942857 189.193509,49.3397143 C189.193509,61.9425714 184.735759,73.4548571 177.405586,82.1731429 C177.405586,82.1731429 158.507238,32.7517143 101.655232,26.3214286" id="Fill-5" fill="#FFDD7D"></path>
                <path d="M101.655232,26.3214286 C158.507238,32.7517143 177.405586,82.1762857 177.405586,82.1762857 C142.349465,78.804 113.226546,56.5274286 101.655232,26.3214286" id="Fill-6" fill="#594640"></path>
                <path d="M127.616916,176 L117.065862,171.087714 C121.137482,161.206568 119.250787,158.044854 116.39406,153.255143 C113.116672,147.761429 108.630669,140.240571 114.783619,125.440857 C116.551023,121.191714 115.656334,119.708286 113.25166,115.729429 C110.081007,110.474571 105.73941,103.274286 109.72941,89.7002857 C113.857537,75.5982857 104.420921,58.806 104.323603,58.6362857 L114.118096,52.1997143 C114.626656,53.0671429 126.477364,73.7377143 120.7231,93.3397143 C118.340401,101.470286 120.280464,104.676 122.961393,109.116857 C125.764752,113.755714 129.59465,120.113714 125.331534,130.378286 C121.661739,139.200286 123.344382,142.016286 126.122628,146.692857 C129.513029,152.368857 134.152856,160.147432 127.616916,175.990578" id="Fill-7" fill="#42ADE2"></path>
                <path d="M70.7021243,175.761143 C63.7831943,160.103432 68.2189693,152.196 71.4649646,146.425714 C74.1396145,141.68 75.7500551,138.813714 71.8605114,130.104857 C67.3399764,119.959714 71.0129111,113.501143 73.7032573,108.780571 C76.2711723,104.264286 78.1264752,100.995714 75.5428639,92.9405714 C69.3020142,73.502 80.631605,52.5077143 81.1181904,51.6182857 L91.0759245,57.7877143 L86.1001967,54.7077143 L91.082203,57.7782857 C90.9911644,57.9511429 81.9218411,74.8942857 86.4486546,88.9962857 C90.7651377,102.454 86.5993391,109.770571 83.5573958,115.113429 C81.2563179,119.158286 80.4181353,120.67 82.2734382,124.868857 C88.7936821,139.486286 84.4928954,147.129714 81.3567742,152.711429 C78.6161998,157.579727 76.8048466,160.794867 81.1338867,170.55973 L70.7021243,175.761155" id="Fill-8" fill="#ED4C5C"></path>
                <path d="M12.6006924,168.111435 C9.96685287,151.193429 16.2987411,144.709714 20.9228718,139.976571 C24.7307946,136.082571 27.0287333,133.734857 25.5250244,124.309429 C23.7764563,113.347143 29.0001888,108.054571 32.8143902,104.192 C36.4622109,100.499143 39.0929111,97.8245714 38.6848072,89.3702857 C37.6865224,68.9762857 54.0546263,51.6245714 54.7578206,50.908 L62.7817703,59.4471429 L58.7697954,55.1791429 L62.791188,59.4345714 C62.6593391,59.576 49.5152557,73.5931429 50.2435641,88.3865714 C50.9342014,102.504286 45.022974,108.494571 40.7002124,112.869429 C37.4322423,116.175714 36.2142093,117.410857 36.9393784,121.952286 C39.4633438,137.760857 33.329229,144.015143 28.8589221,148.61 C24.9536821,152.601429 22.3732101,155.238286 24.0244611,165.792009 L12.6006924,168.111435" id="Fill-9" fill="#C28FEF"></path>
                <path d="M181.455232,168.111435 C184.089072,151.193429 177.757183,144.709714 173.133053,139.976571 C169.321991,136.082571 167.027191,133.734857 168.527758,124.309429 C170.279465,113.347143 165.052596,108.054571 161.241534,104.192 C157.590574,100.499143 154.963013,97.8245714 155.367978,89.3702857 C156.366263,68.9762857 139.998159,51.6245714 139.294965,50.908 L131.274154,59.4471429 L135.286129,55.1791429 L131.264768,59.4345714 C131.396617,59.576 144.537561,73.5931429 143.812392,88.3865714 C143.118615,102.504286 149.032982,108.494571 153.352604,112.869429 C156.623714,116.175714 157.838607,117.410857 157.116577,121.952286 C154.592612,137.760857 160.726727,144.015143 165.193894,148.61 C169.099134,152.601429 171.679607,155.238286 170.031495,165.792009 L181.455263,168.111435" id="Fill-10" fill="#83BF4F"></path>
                <polygon id="Fill-11" fill="#42ADE2" points="52.7307374 97.9970514 61.6098216 89.1077943 70.4889057 97.9970514 61.6098216 106.886309"></polygon>
                <polygon id="Fill-12" fill="#42ADE2" points="140.948758 163.317732 149.827843 154.428466 158.706927 163.317732 149.827843 172.206989"></polygon>
                <polygon id="Fill-13" fill="#83BF4F" points="44.596945 128.947469 53.4760292 120.058211 62.3551134 128.947469 53.4760292 137.836726"></polygon>
                <polygon id="Fill-14" fill="#83BF4F" points="88.1561925 77.8722057 97.0352767 68.9829486 105.914361 77.8722057 97.0352767 86.7614629"></polygon>
                <polygon id="Fill-15" fill="#ED4C5C" points="35.7115195 163.326988 44.5906037 154.437737 53.4696879 163.326988 44.5906037 172.216245"></polygon>
                <polygon id="Fill-16" fill="#ED4C5C" points="133.395572 130.56032 142.274656 121.671063 151.153741 130.56032 142.274656 139.449577"></polygon>
                <polygon id="Fill-17" fill="#C28FEF" points="88.1478421 161.950989 97.0269263 153.061731 105.90601 161.950985 97.0269263 170.840243"></polygon>
                <polygon id="Fill-18" fill="#C28FEF" points="124.516551 99.3196914 133.395635 90.4304343 142.274719 99.3196914 133.395635 108.208949"></polygon>
                <polygon id="Fill-19" fill="#ED4C5C" points="90.3742998 122.809783 99.2533839 113.920526 108.132468 122.809783 99.2533839 131.69904"></polygon>
            </g>
            <g id="Page-1" transform="translate(99.000000, 342.000000)">
                <g id="Group-12" transform="translate(27.427885, 61.944111)">
                    <mask id="mask-2" fill="white">
                        <use xlink:href="#path-1"></use>
                    </mask>
                    <g id="Clip-2"></g>
                    <path d="M181.225962,73.9286659 L178.203741,65.6216346 C178.180919,65.628155 178.164618,65.6411959 178.138537,65.6509766 C175.853125,66.4823317 173.319937,65.3021334 172.485322,63.0069411 C171.653966,60.715009 172.827644,58.1850811 175.122837,57.3472055 C175.145658,57.3439453 175.16848,57.3341321 175.191301,57.324384 L172.169081,49.0238406 C172.149519,49.030361 172.126698,49.0434345 172.107136,49.0499223 C169.815204,49.8845377 167.285276,48.7011118 166.447401,46.4058869 C165.616046,44.1139548 166.796244,41.5840269 169.088176,40.7461513 C169.110998,40.7428911 169.133819,40.7363706 169.15338,40.72659 L166.13442,32.422819 C166.111599,32.4293394 166.088777,32.43912 166.069216,32.4489007 C163.777284,33.2802559 161.247356,32.1000575 160.419261,29.8113857 C159.581385,27.5194536 160.761584,24.9830053 163.053516,24.1483899 C163.073077,24.1386092 163.099159,24.135349 163.11872,24.1288286 L160.09976,15.8250575 C160.076938,15.8283178 160.050856,15.8380984 160.031295,15.8446188 C157.811088,16.6531525 155.369186,15.5675005 154.462846,13.4157577 C145.666782,14.4622871 136.984826,9.38613026 133.822416,0.697653696 L12.2163462,44.9974734 C15.9069111,55.1335186 10.677524,66.3388822 0.548028591,70.0359349 L24.194381,135.038141 C34.3238732,131.350837 45.5259766,136.573707 49.210021,146.712969 L170.848693,102.413143 C167.669982,93.6855443 171.10951,84.1494115 178.611268,79.3242913 C177.946184,77.1203851 179.08726,74.753468 181.255303,73.9286333" id="Fill-1" fill="#FBBF67" mask="url(#mask-2)"></path>
                    <path d="M156.969952,90.3503756 L52.0561899,128.560118 C46.4388371,130.60427 40.2020433,127.699424 38.1513672,122.075554 L19.568134,70.9716496 C17.5207181,65.3445162 20.4320913,59.1044947 26.0461839,57.0570463 L130.959946,18.8505709 C136.583819,16.803155 142.817353,19.7145282 144.861508,25.3351412 L163.448002,76.4422927 C165.492157,82.0661659 162.584044,88.3029597 156.966692,90.3503756 M27.9175481,62.1560246 C25.1039814,63.1829928 23.6531851,66.2997596 24.6736328,69.1133263 L43.2633864,120.220478 C44.2838341,123.024267 47.400601,124.481577 50.2076472,123.46113 L155.121409,85.2546575 C157.931716,84.2276893 159.389032,81.1109225 158.368585,78.2940956 L139.782091,27.1902043 C138.761644,24.3831581 135.635096,22.9258413 132.82805,23.9495493 L27.94689,62.1560246" id="Fill-3" fill="#FF5555" mask="url(#mask-2)"></path>
                </g>
                <g id="Group-19" transform="translate(27.427885, 61.944111)">
                    <g id="Group-15">
                        <mask id="mask-4" fill="white">
                            <use xlink:href="#path-3"></use>
                        </mask>
                        <g id="Clip-14"></g>
                        <path d="M55.2479417,116.748351 L154.391121,33.4954627 C149.566001,27.7346605 148.692263,20.027509 151.36564,13.5201172 C143.691091,13.1973558 136.606641,8.36245493 133.815895,0.697686298 L12.2098257,44.997506 C15.9003906,55.1335186 10.6710036,66.3388822 0.541501638,70.0359675 L8.15411659,90.9632963 L27.7480168,114.342314 C36.0126653,107.398047 48.319982,108.477178 55.2479417,116.748351" id="Fill-13" fill-opacity="0.5" fill="#947151" mask="url(#mask-4)"></path>
                    </g>
                    <g id="Group-18">
                        <mask id="mask-6" fill="white">
                            <use xlink:href="#path-5"></use>
                        </mask>
                        <g id="Clip-17"></g>
                        <path d="M55.2479417,116.748351 L154.391121,33.4954627 C149.566001,27.7346605 148.692263,20.027509 151.36564,13.5201172 C143.691091,13.1973558 136.606641,8.36245493 133.815895,0.697686298 L12.2098257,44.997506 C15.9003906,55.1335186 10.6710036,66.3388822 0.541501638,70.0359675 L8.15411659,90.9632963 L27.7480168,114.342314 C36.0126653,107.398047 48.319982,108.477178 55.2479417,116.748351" id="Fill-16" fill-opacity="0.5" fill="#947151" mask="url(#mask-6)"></path>
                    </g>
                </g>
                <g id="Group-31" filter="url(#filter-7)">
                    <mask id="mask-9" fill="white">
                        <use xlink:href="#path-8"></use>
                    </mask>
                    <g id="Clip-21"></g>
                    <path d="M171.128756,52.5872897 L165.449459,45.8190805 C165.433158,45.8321214 165.420117,45.8484225 165.400556,45.8679838 C163.535712,47.4296274 160.751487,47.1883714 159.186584,45.3202674 C157.62168,43.4489032 157.859675,40.6711989 159.73104,39.0997746 C159.747341,39.0867338 159.763642,39.0704327 159.783203,39.0541316 L154.107166,32.2891827 C154.090865,32.3022236 154.074564,32.3217849 154.058263,32.3315655 C152.190159,33.8997296 149.405934,33.6584736 147.83777,31.7903696 C146.272867,29.9190054 146.517383,27.1380409 148.382227,25.5666166 C148.401788,25.5535757 148.421349,25.5405349 148.43765,25.5242338 L142.761614,18.7560246 C142.742052,18.7690655 142.725751,18.7853666 142.70945,18.8016677 C140.841346,20.3665715 138.060382,20.1253155 136.498738,18.2604718 C134.930574,16.3891076 135.17183,13.6048828 137.039934,12.0367188 C137.056235,12.0204177 137.079056,12.010637 137.095358,11.9975962 L131.419321,5.2261268 C131.39976,5.23916767 131.380198,5.25546875 131.363897,5.26850962 C129.554477,6.79103065 126.88762,6.60519832 125.299895,4.89032452 C117.38735,8.88082933 107.495853,7.0811899 101.555739,-0.00326021635 L2.40929466,83.2496244 C9.33725309,91.5142728 8.2613817,103.837891 0.00325492762,110.772371 L44.4367488,163.763927 C52.698137,156.829447 65.0087139,157.905286 71.9399339,166.173195 L171.086373,82.9203099 C165.116917,75.7999974 165.090835,65.6640174 170.486493,58.5632336 C169.110682,56.7179512 169.37476,54.1097781 171.128756,52.5872571" id="Fill-20" fill="#FBBF67" mask="url(#mask-9)"></path>
                    <path d="M153.947416,76.3281851 L68.4319411,148.150751 C63.8513371,151.994546 56.9951022,151.397927 53.1480469,146.814063 L18.2213557,105.151758 C14.3742971,100.571154 14.9741802,93.7051382 19.5547842,89.8646034 L105.070252,18.0420373 C109.647596,14.194982 116.503831,14.7948618 120.347626,19.378726 L155.280844,61.0377704 C159.121379,65.6248948 158.521499,72.4778696 153.940895,76.3281851 M23.0432124,94.0083383 C20.7545405,95.931866 20.4546006,99.3616136 22.374868,101.650285 L57.3113431,143.31259 C59.2316106,145.601262 62.6548377,145.901202 64.9467698,143.980967 L150.462245,72.1910032 C152.750916,70.2642153 153.054117,66.8377279 151.133849,64.542503 L116.203891,22.8834585 C114.283624,20.5947867 110.847356,20.2948468 108.561944,22.2151142 L23.0464694,94.0377129" id="Fill-22" fill="#FF5555" mask="url(#mask-9)"></path>
                </g>
            </g>
        </g>
    </g>
</svg>